<svg width="181" height="33" viewBox="0 0 181 33" fill="none" xmlns="http://www.w3.org/2000/svg">
<path d="M12.376 26.384C10.0933 26.384 8.024 25.8933 6.168 24.912C4.33333 23.9093 2.88267 22.5333 1.816 20.784C0.770667 19.0133 0.248 17.0187 0.248 14.8C0.248 12.5813 0.770667 10.5973 1.816 8.848C2.88267 7.07733 4.33333 5.70133 6.168 4.72C8.024 3.71733 10.104 3.216 12.408 3.216C14.3493 3.216 16.0987 3.55733 17.656 4.24C19.2347 4.92267 20.5573 5.904 21.624 7.184L18.296 10.256C16.7813 8.50667 14.904 7.632 12.664 7.632C11.2773 7.632 10.04 7.94133 8.952 8.56C7.864 9.15733 7.01067 10 6.392 11.088C5.79467 12.176 5.496 13.4133 5.496 14.8C5.496 16.1867 5.79467 17.424 6.392 18.512C7.01067 19.6 7.864 20.4533 8.952 21.072C10.04 21.6693 11.2773 21.968 12.664 21.968C14.904 21.968 16.7813 21.0827 18.296 19.312L21.624 22.384C20.5573 23.6853 19.2347 24.6773 17.656 25.36C16.0773 26.0427 14.3173 26.384 12.376 26.384Z" fill="#1EBB9C"/>
<path d="M32.9648 26.256C31.1514 26.256 29.5194 25.8827 28.0688 25.136C26.6394 24.368 25.5194 23.312 24.7088 21.968C23.8981 20.624 23.4928 19.0987 23.4928 17.392C23.4928 15.6853 23.8981 14.16 24.7088 12.816C25.5194 11.472 26.6394 10.4267 28.0688 9.68C29.5194 8.912 31.1514 8.528 32.9648 8.528C34.7781 8.528 36.3994 8.912 37.8288 9.68C39.2581 10.4267 40.3781 11.472 41.1888 12.816C41.9994 14.16 42.4048 15.6853 42.4048 17.392C42.4048 19.0987 41.9994 20.624 41.1888 21.968C40.3781 23.312 39.2581 24.368 37.8288 25.136C36.3994 25.8827 34.7781 26.256 32.9648 26.256ZM32.9648 22.16C34.2448 22.16 35.2901 21.7333 36.1008 20.88C36.9328 20.0053 37.3488 18.8427 37.3488 17.392C37.3488 15.9413 36.9328 14.7893 36.1008 13.936C35.2901 13.0613 34.2448 12.624 32.9648 12.624C31.6848 12.624 30.6288 13.0613 29.7968 13.936C28.9648 14.7893 28.5488 15.9413 28.5488 17.392C28.5488 18.8427 28.9648 20.0053 29.7968 20.88C30.6288 21.7333 31.6848 22.16 32.9648 22.16ZM51.9175 26.256C49.9762 26.256 48.4615 25.744 47.3735 24.72C46.2855 23.6747 45.7415 22.2027 45.7415 20.304V2.256H50.7335V20.016C50.7335 20.7413 50.9148 21.3067 51.2775 21.712C51.6615 22.096 52.1948 22.288 52.8775 22.288C53.1335 22.288 53.3895 22.256 53.6455 22.192C53.9228 22.128 54.1362 22.0533 54.2855 21.968L54.5095 25.84C53.6775 26.1173 52.8135 26.256 51.9175 26.256ZM63.1363 26.256C61.1949 26.256 59.6803 25.744 58.5923 24.72C57.5043 23.6747 56.9603 22.2027 56.9603 20.304V2.256H61.9523V20.016C61.9523 20.7413 62.1336 21.3067 62.4963 21.712C62.8803 22.096 63.4136 22.288 64.0963 22.288C64.3523 22.288 64.6083 22.256 64.8643 22.192C65.1416 22.128 65.3549 22.0533 65.5043 21.968L65.7283 25.84C64.8963 26.1173 64.0323 26.256 63.1363 26.256ZM76.5385 22.256C77.4345 22.256 78.2238 22.128 78.9065 21.872C79.6105 21.5947 80.2612 21.168 80.8585 20.592L83.5145 23.472C81.8932 25.328 79.5252 26.256 76.4105 26.256C74.4692 26.256 72.7518 25.8827 71.2585 25.136C69.7652 24.368 68.6132 23.312 67.8025 21.968C66.9918 20.624 66.5865 19.0987 66.5865 17.392C66.5865 15.7067 66.9812 14.192 67.7705 12.848C68.5812 11.4827 69.6798 10.4267 71.0665 9.68C72.4745 8.912 74.0532 8.528 75.8025 8.528C77.4452 8.528 78.9385 8.88 80.2825 9.584C81.6265 10.2667 82.6932 11.2693 83.4825 12.592C84.2932 13.8933 84.6985 15.44 84.6985 17.232L71.9625 19.696C72.3252 20.5493 72.8905 21.1893 73.6585 21.616C74.4478 22.0427 75.4078 22.256 76.5385 22.256ZM75.8025 12.304C74.5438 12.304 73.5198 12.7093 72.7305 13.52C71.9412 14.3307 71.5252 15.4507 71.4825 16.88L79.8665 15.248C79.6318 14.352 79.1518 13.6373 78.4265 13.104C77.7012 12.5707 76.8265 12.304 75.8025 12.304ZM105.814 8.784V23.12C105.814 26.2773 104.993 28.624 103.35 30.16C101.707 31.696 99.3073 32.464 96.15 32.464C94.486 32.464 92.9073 32.2613 91.414 31.856C89.9207 31.4507 88.6833 30.864 87.702 30.096L89.686 26.512C90.4113 27.1093 91.3287 27.5787 92.438 27.92C93.5473 28.2827 94.6567 28.464 95.766 28.464C97.494 28.464 98.7633 28.0693 99.574 27.28C100.406 26.512 100.822 25.3387 100.822 23.76V23.024C99.5207 24.4533 97.7073 25.168 95.382 25.168C93.8033 25.168 92.3527 24.8267 91.03 24.144C89.7287 23.44 88.694 22.4587 87.926 21.2C87.158 19.9413 86.774 18.4907 86.774 16.848C86.774 15.2053 87.158 13.7547 87.926 12.496C88.694 11.2373 89.7287 10.2667 91.03 9.584C92.3527 8.88 93.8033 8.528 95.382 8.528C97.878 8.528 99.7767 9.34933 101.078 10.992V8.784H105.814ZM96.374 21.072C97.6967 21.072 98.774 20.688 99.606 19.92C100.459 19.1307 100.886 18.1067 100.886 16.848C100.886 15.5893 100.459 14.576 99.606 13.808C98.774 13.0187 97.6967 12.624 96.374 12.624C95.0513 12.624 93.9633 13.0187 93.11 13.808C92.2567 14.576 91.83 15.5893 91.83 16.848C91.83 18.1067 92.2567 19.1307 93.11 19.92C93.9633 20.688 95.0513 21.072 96.374 21.072ZM110.46 8.784H115.452V26H110.46V8.784ZM112.956 6.384C112.039 6.384 111.292 6.11733 110.716 5.584C110.14 5.05067 109.852 4.38933 109.852 3.6C109.852 2.81067 110.14 2.14933 110.716 1.616C111.292 1.08267 112.039 0.815998 112.956 0.815998C113.874 0.815998 114.62 1.072 115.196 1.584C115.772 2.096 116.06 2.736 116.06 3.504C116.06 4.336 115.772 5.02933 115.196 5.584C114.62 6.11733 113.874 6.384 112.956 6.384Z" fill="#EBA002"/>
<path d="M137.557 8.784V26H132.789V24.016C131.552 25.5093 129.76 26.256 127.413 26.256C125.792 26.256 124.32 25.8933 122.997 25.168C121.696 24.4427 120.672 23.408 119.925 22.064C119.179 20.72 118.805 19.1627 118.805 17.392C118.805 15.6213 119.179 14.064 119.925 12.72C120.672 11.376 121.696 10.3413 122.997 9.616C124.32 8.89067 125.792 8.528 127.413 8.528C129.611 8.528 131.328 9.22133 132.565 10.608V8.784H137.557ZM128.277 22.16C129.536 22.16 130.581 21.7333 131.413 20.88C132.245 20.0053 132.661 18.8427 132.661 17.392C132.661 15.9413 132.245 14.7893 131.413 13.936C130.581 13.0613 129.536 12.624 128.277 12.624C126.997 12.624 125.941 13.0613 125.109 13.936C124.277 14.7893 123.861 15.9413 123.861 17.392C123.861 18.8427 124.277 20.0053 125.109 20.88C125.941 21.7333 126.997 22.16 128.277 22.16ZM152.547 25.168C152.056 25.5307 151.448 25.808 150.723 26C150.019 26.1707 149.283 26.256 148.515 26.256C146.446 26.256 144.856 25.7333 143.747 24.688C142.638 23.6427 142.083 22.1067 142.083 20.08V4.976H147.075V9.168H151.331V13.008H147.075V20.016C147.075 20.7413 147.256 21.3067 147.619 21.712C147.982 22.096 148.504 22.288 149.187 22.288C149.955 22.288 150.638 22.0747 151.235 21.648L152.547 25.168ZM163.507 22.256C164.403 22.256 165.193 22.128 165.875 21.872C166.579 21.5947 167.23 21.168 167.827 20.592L170.483 23.472C168.862 25.328 166.494 26.256 163.379 26.256C161.438 26.256 159.721 25.8827 158.227 25.136C156.734 24.368 155.582 23.312 154.771 21.968C153.961 20.624 153.555 19.0987 153.555 17.392C153.555 15.7067 153.95 14.192 154.739 12.848C155.55 11.4827 156.649 10.4267 158.035 9.68C159.443 8.912 161.022 8.528 162.771 8.528C164.414 8.528 165.907 8.88 167.251 9.584C168.595 10.2667 169.662 11.2693 170.451 12.592C171.262 13.8933 171.667 15.44 171.667 17.232L158.931 19.696C159.294 20.5493 159.859 21.1893 160.627 21.616C161.417 22.0427 162.377 22.256 163.507 22.256ZM162.771 12.304C161.513 12.304 160.489 12.7093 159.699 13.52C158.91 14.3307 158.494 15.4507 158.451 16.88L166.835 15.248C166.601 14.352 166.121 13.6373 165.395 13.104C164.67 12.5707 163.795 12.304 162.771 12.304Z" fill="#F23E64"/>
<path d="M176.911 26.256C176.036 26.256 175.3 25.9573 174.703 25.36C174.105 24.7627 173.807 24.016 173.807 23.12C173.807 22.2027 174.105 21.4667 174.703 20.912C175.3 20.336 176.036 20.048 176.911 20.048C177.785 20.048 178.521 20.336 179.119 20.912C179.716 21.4667 180.015 22.2027 180.015 23.12C180.015 24.016 179.716 24.7627 179.119 25.36C178.521 25.9573 177.785 26.256 176.911 26.256Z" fill="#7E72FC"/>
</svg>
